<mxfile host="app.diagrams.net" agent="Mozilla/5.0 (Windows NT 10.0; Win64; x64) AppleWebKit/537.36 (KHTML, like Gecko) Chrome/135.0.0.0 Safari/537.36" version="26.2.14">
  <diagram name="Event Reporting Flow" id="kXkpbgbRy_-RQq-wQJEX">
    <mxGraphModel dx="969" dy="578" grid="0" gridSize="10" guides="1" tooltips="1" connect="1" arrows="1" fold="1" page="0" pageScale="1" pageWidth="850" pageHeight="1100" math="0" shadow="0">
      <root>
        <mxCell id="0" />
        <mxCell id="1" parent="0" />
        <mxCell id="Jd2bwjEsFiMkGlKH9jGw-1" value="Pulse系统事件报告流程图" style="text;html=1;strokeColor=none;fillColor=none;align=center;verticalAlign=middle;whiteSpace=wrap;rounded=0;fontSize=14;fontStyle=1" vertex="1" parent="1">
          <mxGeometry x="260" y="20" width="280" height="30" as="geometry" />
        </mxCell>
        <mxCell id="Jd2bwjEsFiMkGlKH9jGw-2" value="Server节点" style="swimlane;fontStyle=1;align=center;verticalAlign=top;childLayout=stackLayout;horizontal=1;startSize=30;horizontalStack=0;resizeParent=1;resizeParentMax=0;resizeLast=0;collapsible=0;marginBottom=0;html=1;fillColor=#f8cecc;strokeColor=#b85450;" vertex="1" parent="1">
          <mxGeometry x="70" y="80" width="180" height="150" as="geometry" />
        </mxCell>
        <mxCell id="Jd2bwjEsFiMkGlKH9jGw-3" value="Raft状态事件&#xa;(内部实现)" style="rounded=1;whiteSpace=wrap;html=1;fontSize=12;glass=0;strokeWidth=1;shadow=0;fillColor=#dae8fc;strokeColor=#6c8ebf;" vertex="1" parent="Jd2bwjEsFiMkGlKH9jGw-2">
          <mxGeometry y="30" width="180" height="40" as="geometry" />
        </mxCell>
        <mxCell id="Jd2bwjEsFiMkGlKH9jGw-4" value="Serf成员事件&#xa;(serf.go)" style="rounded=1;whiteSpace=wrap;html=1;fontSize=12;glass=0;strokeWidth=1;shadow=0;fillColor=#dae8fc;strokeColor=#6c8ebf;" vertex="1" parent="Jd2bwjEsFiMkGlKH9jGw-2">
          <mxGeometry y="70" width="180" height="40" as="geometry" />
        </mxCell>
        <mxCell id="Jd2bwjEsFiMkGlKH9jGw-5" value="任务状态事件&#xa;(job.go/execution.go)" style="rounded=1;whiteSpace=wrap;html=1;fontSize=12;glass=0;strokeWidth=1;shadow=0;fillColor=#dae8fc;strokeColor=#6c8ebf;" vertex="1" parent="Jd2bwjEsFiMkGlKH9jGw-2">
          <mxGeometry y="110" width="180" height="40" as="geometry" />
        </mxCell>
        <mxCell id="Jd2bwjEsFiMkGlKH9jGw-6" value="Agent节点" style="swimlane;fontStyle=1;align=center;verticalAlign=top;childLayout=stackLayout;horizontal=1;startSize=30;horizontalStack=0;resizeParent=1;resizeParentMax=0;resizeLast=0;collapsible=0;marginBottom=0;html=1;fillColor=#fff2cc;strokeColor=#d6b656;" vertex="1" parent="1">
          <mxGeometry x="70" y="320" width="180" height="110" as="geometry" />
        </mxCell>
        <mxCell id="Jd2bwjEsFiMkGlKH9jGw-7" value="Serf成员事件&#xa;(serf.go)" style="rounded=1;whiteSpace=wrap;html=1;fontSize=12;glass=0;strokeWidth=1;shadow=0;fillColor=#ffe6cc;strokeColor=#d79b00;" vertex="1" parent="Jd2bwjEsFiMkGlKH9jGw-6">
          <mxGeometry y="30" width="180" height="40" as="geometry" />
        </mxCell>
        <mxCell id="Jd2bwjEsFiMkGlKH9jGw-8" value="任务执行事件&#xa;(agent.go/execution.go)" style="rounded=1;whiteSpace=wrap;html=1;fontSize=12;glass=0;strokeWidth=1;shadow=0;fillColor=#ffe6cc;strokeColor=#d79b00;" vertex="1" parent="Jd2bwjEsFiMkGlKH9jGw-6">
          <mxGeometry y="70" width="180" height="40" as="geometry" />
        </mxCell>
        <mxCell id="Jd2bwjEsFiMkGlKH9jGw-9" value="EventReporter" style="swimlane;fontStyle=1;align=center;verticalAlign=top;childLayout=stackLayout;horizontal=1;startSize=30;horizontalStack=0;resizeParent=1;resizeParentMax=0;resizeLast=0;collapsible=0;marginBottom=0;html=1;fillColor=#e1d5e7;strokeColor=#9673a6;" vertex="1" parent="1">
          <mxGeometry x="330" y="160" width="180" height="130" as="geometry" />
        </mxCell>
        <mxCell id="Jd2bwjEsFiMkGlKH9jGw-10" value="事件捕获&#xa;(internal/eventreporter/)" style="rounded=1;whiteSpace=wrap;html=1;fontSize=12;glass=0;strokeWidth=1;shadow=0;fillColor=#d5e8d4;strokeColor=#82b366;" vertex="1" parent="Jd2bwjEsFiMkGlKH9jGw-9">
          <mxGeometry y="30" width="180" height="40" as="geometry" />
        </mxCell>
        <mxCell id="Jd2bwjEsFiMkGlKH9jGw-11" value="Protobuf消息构造&#xa;(pulse-aggregator/api/)" style="rounded=1;whiteSpace=wrap;html=1;fontSize=12;glass=0;strokeWidth=1;shadow=0;fillColor=#d5e8d4;strokeColor=#82b366;" vertex="1" parent="Jd2bwjEsFiMkGlKH9jGw-9">
          <mxGeometry y="70" width="180" height="40" as="geometry" />
        </mxCell>
        <mxCell id="Jd2bwjEsFiMkGlKH9jGw-12" value="gRPC客户端&#xa;(grpc_client.go)" style="rounded=1;whiteSpace=wrap;html=1;fontSize=12;glass=0;strokeWidth=1;shadow=0;fillColor=#d5e8d4;strokeColor=#82b366;" vertex="1" parent="Jd2bwjEsFiMkGlKH9jGw-9">
          <mxGeometry y="110" width="180" height="20" as="geometry" />
        </mxCell>
        <mxCell id="Jd2bwjEsFiMkGlKH9jGw-13" value="Pulse Aggregator" style="swimlane;fontStyle=1;align=center;verticalAlign=top;childLayout=stackLayout;horizontal=1;startSize=30;horizontalStack=0;resizeParent=1;resizeParentMax=0;resizeLast=0;collapsible=0;marginBottom=0;html=1;fillColor=#f5f5f5;strokeColor=#666666;fontColor=#333333;" vertex="1" parent="1">
          <mxGeometry x="580" y="160" width="180" height="130" as="geometry" />
        </mxCell>
        <mxCell id="Jd2bwjEsFiMkGlKH9jGw-14" value="gRPC服务器&#xa;(pulse-aggregator/internal/)" style="rounded=1;whiteSpace=wrap;html=1;fontSize=12;glass=0;strokeWidth=1;shadow=0;fillColor=#f5f5f5;strokeColor=#666666;fontColor=#333333;" vertex="1" parent="Jd2bwjEsFiMkGlKH9jGw-13">
          <mxGeometry y="30" width="180" height="40" as="geometry" />
        </mxCell>
        <mxCell id="Jd2bwjEsFiMkGlKH9jGw-15" value="事件处理&#xa;(pulse-aggregator/internal/)" style="rounded=1;whiteSpace=wrap;html=1;fontSize=12;glass=0;strokeWidth=1;shadow=0;fillColor=#f5f5f5;strokeColor=#666666;fontColor=#333333;" vertex="1" parent="Jd2bwjEsFiMkGlKH9jGw-13">
          <mxGeometry y="70" width="180" height="40" as="geometry" />
        </mxCell>
        <mxCell id="Jd2bwjEsFiMkGlKH9jGw-16" value="WebSocket服务器&#xa;(前端UI实时推送)" style="rounded=1;whiteSpace=wrap;html=1;fontSize=12;glass=0;strokeWidth=1;shadow=0;fillColor=#f5f5f5;strokeColor=#666666;fontColor=#333333;" vertex="1" parent="Jd2bwjEsFiMkGlKH9jGw-13">
          <mxGeometry y="110" width="180" height="20" as="geometry" />
        </mxCell>
        <mxCell id="Jd2bwjEsFiMkGlKH9jGw-17" value="前端UI" style="rounded=1;whiteSpace=wrap;html=1;fontSize=12;glass=0;strokeWidth=1;shadow=0;fillColor=#b1ddf0;strokeColor=#10739e;" vertex="1" parent="1">
          <mxGeometry x="580" y="350" width="180" height="60" as="geometry" />
        </mxCell>
        <mxCell id="Jd2bwjEsFiMkGlKH9jGw-18" value="1. 捕获Raft状态事件" style="endArrow=classic;html=1;rounded=0;exitX=1;exitY=0.5;exitDx=0;exitDy=0;entryX=0;entryY=0.25;entryDx=0;entryDy=0;fontSize=10;" edge="1" parent="1" source="Jd2bwjEsFiMkGlKH9jGw-3" target="Jd2bwjEsFiMkGlKH9jGw-10">
          <mxGeometry x="0.0638" y="8" width="50" height="50" relative="1" as="geometry">
            <mxPoint as="offset" />
          </mxGeometry>
        </mxCell>
        <mxCell id="Jd2bwjEsFiMkGlKH9jGw-19" value="2a. 捕获Serf成员事件" style="endArrow=classic;html=1;rounded=0;exitX=1;exitY=0.5;exitDx=0;exitDy=0;entryX=0;entryY=0.5;entryDx=0;entryDy=0;fontSize=10;" edge="1" parent="1" source="Jd2bwjEsFiMkGlKH9jGw-4" target="Jd2bwjEsFiMkGlKH9jGw-10">
          <mxGeometry x="0.0122" y="10" width="50" height="50" relative="1" as="geometry">
            <mxPoint as="offset" />
          </mxGeometry>
        </mxCell>
        <mxCell id="Jd2bwjEsFiMkGlKH9jGw-20" value="3a. 捕获任务状态事件" style="endArrow=classic;html=1;rounded=0;exitX=1;exitY=0.5;exitDx=0;exitDy=0;entryX=0;entryY=0.75;entryDx=0;entryDy=0;fontSize=10;" edge="1" parent="1" source="Jd2bwjEsFiMkGlKH9jGw-5" target="Jd2bwjEsFiMkGlKH9jGw-10">
          <mxGeometry x="0.1169" y="10" width="50" height="50" relative="1" as="geometry">
            <mxPoint as="offset" />
          </mxGeometry>
        </mxCell>
        <mxCell id="Jd2bwjEsFiMkGlKH9jGw-21" value="2b. 捕获Serf成员事件" style="endArrow=classic;html=1;rounded=0;exitX=1;exitY=0.5;exitDx=0;exitDy=0;entryX=0.25;entryY=1;entryDx=0;entryDy=0;fontSize=10;" edge="1" parent="1" source="Jd2bwjEsFiMkGlKH9jGw-7" target="Jd2bwjEsFiMkGlKH9jGw-10">
          <mxGeometry x="0.3662" y="-15" width="50" height="50" relative="1" as="geometry">
            <mxPoint as="offset" />
          </mxGeometry>
        </mxCell>
        <mxCell id="Jd2bwjEsFiMkGlKH9jGw-22" value="3b. 捕获任务执行事件" style="endArrow=classic;html=1;rounded=0;exitX=1;exitY=0.5;exitDx=0;exitDy=0;entryX=0.75;entryY=1;entryDx=0;entryDy=0;fontSize=10;" edge="1" parent="1" source="Jd2bwjEsFiMkGlKH9jGw-8" target="Jd2bwjEsFiMkGlKH9jGw-10">
          <mxGeometry x="0.4103" y="-15" width="50" height="50" relative="1" as="geometry">
            <mxPoint as="offset" />
          </mxGeometry>
        </mxCell>
        <mxCell id="Jd2bwjEsFiMkGlKH9jGw-23" value="4. 构造为Protobuf消息" style="endArrow=classic;html=1;rounded=0;exitX=0.5;exitY=1;exitDx=0;exitDy=0;entryX=0.5;entryY=0;entryDx=0;entryDy=0;fontSize=10;" edge="1" parent="1" source="Jd2bwjEsFiMkGlKH9jGw-10" target="Jd2bwjEsFiMkGlKH9jGw-11">
          <mxGeometry x="0.2" y="10" width="50" height="50" relative="1" as="geometry">
            <mxPoint as="offset" />
          </mxGeometry>
        </mxCell>
        <mxCell id="Jd2bwjEsFiMkGlKH9jGw-24" value="5. 通过gRPC客户端发送" style="endArrow=classic;html=1;rounded=0;exitX=0.5;exitY=1;exitDx=0;exitDy=0;entryX=0.5;entryY=0;entryDx=0;entryDy=0;fontSize=10;" edge="1" parent="1" source="Jd2bwjEsFiMkGlKH9jGw-11" target="Jd2bwjEsFiMkGlKH9jGw-12">
          <mxGeometry x="0.2" y="10" width="50" height="50" relative="1" as="geometry">
            <mxPoint as="offset" />
          </mxGeometry>
        </mxCell>
        <mxCell id="Jd2bwjEsFiMkGlKH9jGw-25" value="6. 流式gRPC连接&#xa;(包含节点ID、类型等元数据)" style="endArrow=classic;html=1;rounded=0;exitX=1;exitY=0.5;exitDx=0;exitDy=0;entryX=0;entryY=0.5;entryDx=0;entryDy=0;fontSize=10;" edge="1" parent="1" source="Jd2bwjEsFiMkGlKH9jGw-12" target="Jd2bwjEsFiMkGlKH9jGw-14">
          <mxGeometry x="-0.0073" y="10" width="50" height="50" relative="1" as="geometry">
            <mxPoint as="offset" />
          </mxGeometry>
        </mxCell>
        <mxCell id="Jd2bwjEsFiMkGlKH9jGw-26" value="7. 解析并处理事件" style="endArrow=classic;html=1;rounded=0;exitX=0.5;exitY=1;exitDx=0;exitDy=0;entryX=0.5;entryY=0;entryDx=0;entryDy=0;fontSize=10;" edge="1" parent="1" source="Jd2bwjEsFiMkGlKH9jGw-14" target="Jd2bwjEsFiMkGlKH9jGw-15">
          <mxGeometry x="0.2" y="10" width="50" height="50" relative="1" as="geometry">
            <mxPoint as="offset" />
          </mxGeometry>
        </mxCell>
        <mxCell id="Jd2bwjEsFiMkGlKH9jGw-27" value="8. 更新内存状态视图" style="endArrow=classic;html=1;rounded=0;exitX=0.5;exitY=1;exitDx=0;exitDy=0;entryX=0.5;entryY=0;entryDx=0;entryDy=0;fontSize=10;" edge="1" parent="1" source="Jd2bwjEsFiMkGlKH9jGw-15" target="Jd2bwjEsFiMkGlKH9jGw-16">
          <mxGeometry x="0.2" y="10" width="50" height="50" relative="1" as="geometry">
            <mxPoint as="offset" />
          </mxGeometry>
        </mxCell>
        <mxCell id="Jd2bwjEsFiMkGlKH9jGw-28" value="9. WebSocket实时推送&#xa;更新后的集群状态视图" style="endArrow=classic;html=1;rounded=0;exitX=0.5;exitY=1;exitDx=0;exitDy=0;entryX=0.5;entryY=0;entryDx=0;entryDy=0;fontSize=10;" edge="1" parent="1" source="Jd2bwjEsFiMkGlKH9jGw-16" target="Jd2bwjEsFiMkGlKH9jGw-17">
          <mxGeometry x="0.4" y="10" width="50" height="50" relative="1" as="geometry">
            <mxPoint as="offset" />
          </mxGeometry>
        </mxCell>
      </root>
    </mxGraphModel>
  </diagram>
</mxfile>
